<?xml version="1.0" encoding="utf-8"?>
<!-- Generator: Adobe Illustrator 16.0.0, SVG Export Plug-In . SVG Version: 6.00 Build 0)  -->
<!DOCTYPE svg PUBLIC "-//W3C//DTD SVG 1.1//EN" "http://www.w3.org/Graphics/SVG/1.1/DTD/svg11.dtd">
<svg version="1.1" xmlns="http://www.w3.org/2000/svg" xmlns:xlink="http://www.w3.org/1999/xlink" x="0px" y="0px" width="64px"
	 height="64px" viewBox="0 0 64 64" enable-background="new 0 0 64 64" xml:space="preserve">
<g id="svg1291" xmlns:svg="http://www.w3.org/2000/svg">
	<g id="layer1">
		
			<linearGradient id="SVGID_1_" gradientUnits="userSpaceOnUse" x1="81.3066" y1="150.9385" x2="87.4583" y2="133.6969" gradientTransform="matrix(0.8986 0 0 -1.4103 -33.7122 237.2985)">
			<stop  offset="0" style="stop-color:#736781"/>
			<stop  offset="1" style="stop-color:#B0B1D0"/>
		</linearGradient>
		<path fill="url(#SVGID_1_)" d="M45.438,9.219L30.25,22.938l-1.875,0.375l-0.188,39l28.125-5.438L56.5,18.063l1.125-0.219
			L45.438,9.219z"/>
		
			<linearGradient id="path1303_1_" gradientUnits="userSpaceOnUse" x1="123.4092" y1="200.2021" x2="122.9437" y2="183.96" gradientTransform="matrix(0.7505 0 0 -1.6886 -74.2116 356.5376)">
			<stop  offset="0" style="stop-color:#736781"/>
			<stop  offset="1" style="stop-color:#B0B1D0"/>
		</linearGradient>
		<path id="path1303" fill="url(#path1303_1_)" d="M28.363,23.673L8.1,16.73v39.401l20.076,6.191L28.363,23.673z"/>
		
			<linearGradient id="path1305_1_" gradientUnits="userSpaceOnUse" x1="-76.3877" y1="-33.4961" x2="-84.6169" y2="-54.8127" gradientTransform="matrix(1.5604 0 0 -0.8122 147.2931 -19.0192)">
			<stop  offset="0" style="stop-color:#866986"/>
			<stop  offset="1" style="stop-color:#DDC9DD"/>
		</linearGradient>
		<path id="path1305" fill="url(#path1305_1_)" d="M21.984,29.489L45.625,7.537L20.858,5.661L-0.155,23.297L21.984,29.489z"/>
		
			<linearGradient id="path1307_1_" gradientUnits="userSpaceOnUse" x1="-94.9609" y1="-48.6733" x2="-65.7373" y2="-48.6733" gradientTransform="matrix(1.5666 0 0 -0.809 148.9836 -20.3916)">
			<stop  offset="0" style="stop-color:#C0A8C0"/>
			<stop  offset="0.4375" style="stop-color:#695B69"/>
			<stop  offset="1" style="stop-color:#DDC9DD"/>
		</linearGradient>
		<path id="path1307" fill="url(#path1307_1_)" d="M0.22,23.11v2.627l23.453,5.066l22.14-19.701L46,7.162L22.547,27.613L0.22,23.11z
			"/>
		
			<linearGradient id="path1309_1_" gradientUnits="userSpaceOnUse" x1="-11.0562" y1="56.3975" x2="4.8813" y2="38.2334" gradientTransform="matrix(1.2508 0 0 -1.0132 62.6284 67.1094)">
			<stop  offset="0" style="stop-color:#C0A8C0"/>
			<stop  offset="0.4375" style="stop-color:#695B69"/>
			<stop  offset="1" style="stop-color:#DDC9DD"/>
		</linearGradient>
		<path id="path1309" fill="url(#path1309_1_)" d="M45.438,7.35l18.762,12.946l-1.125,2.251L45.813,11.102L45.438,7.35z"/>
		
			<linearGradient id="path2195_1_" gradientUnits="userSpaceOnUse" x1="172.2285" y1="217.6553" x2="172.9249" y2="209.2716" gradientTransform="matrix(0.6678 0 0 -1.8978 -96.8401 446.1887)">
			<stop  offset="0" style="stop-color:#6C5065"/>
			<stop  offset="1" style="stop-color:#B69BAC"/>
		</linearGradient>
		<path id="path2195" fill="url(#path2195_1_)" d="M13.166,57.445V30.24l10.694,2.251v28.144L13.166,57.445z"/>
		<path id="path2221" fill="#836F7C" d="M22.922,44.78c0,1.192-0.672,2.157-1.501,2.157s-1.501-0.965-1.501-2.157l0,0
			c0-1.191,0.672-2.157,1.501-2.157S22.922,43.589,22.922,44.78L22.922,44.78z"/>
		
			<linearGradient id="path2211_1_" gradientUnits="userSpaceOnUse" x1="85.0332" y1="79.0508" x2="85.8713" y2="76.7329" gradientTransform="matrix(0.8196 0 0 -1.1781 -49.7089 135.7324)">
			<stop  offset="0" style="stop-color:#7C7C7C"/>
			<stop  offset="1" style="stop-color:#EDEDED"/>
		</linearGradient>
		<path id="path2211" fill="url(#path2211_1_)" d="M21.796,43.842c0,1.192-0.672,2.158-1.501,2.158
			c-0.829,0-1.501-0.966-1.501-2.158l0,0c0-1.191,0.672-2.157,1.501-2.157C21.125,41.685,21.796,42.65,21.796,43.842L21.796,43.842z
			"/>
		<path id="path2239" fill="#596067" d="M15.792,3.222l5.253-0.563H27.8l-5.628,1.688L15.792,3.222z"/>
		
			<linearGradient id="path2225_1_" gradientUnits="userSpaceOnUse" x1="116.6426" y1="202.6758" x2="116.7687" y2="198.1614" gradientTransform="matrix(0.7656 0 0 -1.6553 -70.0836 342.2733)">
			<stop  offset="0" style="stop-color:#BBCAD0"/>
			<stop  offset="1" style="stop-color:#76808B"/>
		</linearGradient>
		<path id="path2225" fill="url(#path2225_1_)" d="M15.792,17.106l6.942,1.313V3.785L15.792,3.41V17.106z"/>
		
			<linearGradient id="path2227_1_" gradientUnits="userSpaceOnUse" x1="133.9375" y1="200.249" x2="120.8067" y2="200.4668" gradientTransform="matrix(0.7656 0 0 -1.6553 -70.0836 342.2733)">
			<stop  offset="0" style="stop-color:#BBCAD0"/>
			<stop  offset="1" style="stop-color:#76808B"/>
		</linearGradient>
		<path id="path2227" fill="url(#path2227_1_)" d="M22.547,3.597l5.441-0.75L27.8,14.479l-5.253,3.752V3.597z"/>
	</g>
</g>
<g id="Layer_2">
	<path fill="#9C4C64" d="M43.51,22.547c-0.314,0.31-1.231,1.237-1.642,2.51c3.233,13.857-4.56,14.958,0.724,25.789
		c-3.69-0.412-5.162-4.298-5.162-7.151c0-5.813,2.991-7.325,3.354-14.098c-0.58-0.757-1.014-1.032-1.014-1.032
		c-1.857,7.461-5.718,7.771-5.718,15.13c0,6.601,4.005,11.587,8.854,11.587c5.162,0,8.854-5.776,8.854-11.622
		C51.76,33.894,45.125,35.716,43.51,22.547z M44.86,49.849c2.05-4.195,2.05-8.666,0-12.791
		C49.275,39.773,49.275,47.097,44.86,49.849z"/>
</g>
</svg>
